0
SECTION
  2
HEADER
  9
$ACADVER
  1
AC1009
  9
$INSBASE
 10
0.0
 20
0.0
 30
0.0
  9
$EXTMIN
 10
-30.0
 20
-30.0
 30
0.0
  9
$EXTMAX
 10
200.0
 20
80.0
 30
0.0
  0
ENDSEC
  0
SECTION
  2
TABLES
  0
TABLE
  2
LTYPE
 70
1
  0
LTYPE
  2
CONTINUOUS
 70
0
  3
Solid line
 72
65
 73
0
 40
0.0
  0
ENDTAB
  0
TABLE
  2
LAYER
 70
5
  0
LAYER
  2
ARQUITECTURA
 70
0
 62
7
  6
CONTINUOUS
  0
LAYER
  2
EXTINTORES
 70
0
 62
1
  6
CONTINUOUS
  0
LAYER
  2
COBERTURA
 70
0
 62
4
  6
CONTINUOUS
  0
LAYER
  2
COTAS
 70
0
 62
3
  6
CONTINUOUS
  0
LAYER
  2
TEXTOS
 70
0
 62
2
  6
CONTINUOUS
  0
ENDTAB
  0
TABLE
  2
STYLE
 70
1
  0
STYLE
  2
STANDARD
 70
0
 40
0.0
 41
1.0
 50
0.0
 71
0
 42
2.5
  3
txt
  4

  0
ENDTAB
  0
ENDSEC
  0
SECTION
  2
BLOCKS
  0
ENDSEC
  0
SECTION
  2
ENTITIES
  0
LINE
  8
ARQUITECTURA
 10
0.0000
 20
0.0000
 30
0.0
 11
137.2000
 21
0.0000
 31
0.0
  0
LINE
  8
ARQUITECTURA
 10
137.2000
 20
0.0000
 30
0.0
 11
137.2000
 21
45.7000
 31
0.0
  0
LINE
  8
ARQUITECTURA
 10
137.2000
 20
45.7000
 30
0.0
 11
0.0000
 21
45.7000
 31
0.0
  0
LINE
  8
ARQUITECTURA
 10
0.0000
 20
45.7000
 30
0.0
 11
0.0000
 21
0.0000
 31
0.0
  0
CIRCLE
  8
EXTINTORES
 10
22.8667
 20
45.7000
 30
0.0
 40
1.2000
  0
CIRCLE
  8
EXTINTORES
 10
22.8667
 20
45.7000
 30
0.0
 40
0.4000
  0
TEXT
  8
EXTINTORES
 10
20.3667
 20
47.7000
 30
0.0
 40
2.0000
  1
E-01
  0
ARC
  8
COBERTURA
 10
22.8667
 20
45.7000
 30
0.0
 40
22.9000
 50
180.0
 51
360.0
  0
CIRCLE
  8
EXTINTORES
 10
68.6000
 20
45.7000
 30
0.0
 40
1.2000
  0
CIRCLE
  8
EXTINTORES
 10
68.6000
 20
45.7000
 30
0.0
 40
0.4000
  0
TEXT
  8
EXTINTORES
 10
66.1000
 20
47.7000
 30
0.0
 40
2.0000
  1
E-02
  0
ARC
  8
COBERTURA
 10
68.6000
 20
45.7000
 30
0.0
 40
22.9000
 50
180.0
 51
360.0
  0
CIRCLE
  8
EXTINTORES
 10
114.3333
 20
45.7000
 30
0.0
 40
1.2000
  0
CIRCLE
  8
EXTINTORES
 10
114.3333
 20
45.7000
 30
0.0
 40
0.4000
  0
TEXT
  8
EXTINTORES
 10
111.8333
 20
47.7000
 30
0.0
 40
2.0000
  1
E-03
  0
ARC
  8
COBERTURA
 10
114.3333
 20
45.7000
 30
0.0
 40
22.9000
 50
180.0
 51
360.0
  0
CIRCLE
  8
EXTINTORES
 10
22.8667
 20
0.0000
 30
0.0
 40
1.2000
  0
CIRCLE
  8
EXTINTORES
 10
22.8667
 20
0.0000
 30
0.0
 40
0.4000
  0
TEXT
  8
EXTINTORES
 10
20.3667
 20
-4.5000
 30
0.0
 40
2.0000
  1
E-04
  0
ARC
  8
COBERTURA
 10
22.8667
 20
0.0000
 30
0.0
 40
22.9000
 50
0.0
 51
180.0
  0
CIRCLE
  8
EXTINTORES
 10
68.6000
 20
0.0000
 30
0.0
 40
1.2000
  0
CIRCLE
  8
EXTINTORES
 10
68.6000
 20
0.0000
 30
0.0
 40
0.4000
  0
TEXT
  8
EXTINTORES
 10
66.1000
 20
-4.5000
 30
0.0
 40
2.0000
  1
E-05
  0
ARC
  8
COBERTURA
 10
68.6000
 20
0.0000
 30
0.0
 40
22.9000
 50
0.0
 51
180.0
  0
CIRCLE
  8
EXTINTORES
 10
114.3333
 20
0.0000
 30
0.0
 40
1.2000
  0
CIRCLE
  8
EXTINTORES
 10
114.3333
 20
0.0000
 30
0.0
 40
0.4000
  0
TEXT
  8
EXTINTORES
 10
111.8333
 20
-4.5000
 30
0.0
 40
2.0000
  1
E-06
  0
ARC
  8
COBERTURA
 10
114.3333
 20
0.0000
 30
0.0
 40
22.9000
 50
0.0
 51
180.0
  0
TEXT
  8
TEXTOS
 10
10.0000
 20
63.7000
 30
0.0
 40
4.0000
  1
COMMS COMMUNICATION
  0
TEXT
  8
TEXTOS
 10
10.0000
 20
57.7000
 30
0.0
 40
3.0000
  1
PLANO DE DISTRIBUCION DE EXTINTORES
  0
TEXT
  8
TEXTOS
 10
10.0000
 20
52.7000
 30
0.0
 40
2.2000
  1
DIMENSIONES: 137.2 m x 45.7 m
  0
TEXT
  8
TEXTOS
 10
10.0000
 20
48.7000
 30
0.0
 40
2.2000
  1
RADIO DE COBERTURA: 22.9 m
  0
LINE
  8
COTAS
 10
0.0000
 20
-12.0000
 30
0.0
 11
137.2000
 21
-12.0000
 31
0.0
  0
LINE
  8
COTAS
 10
0.0000
 20
-14.0000
 30
0.0
 11
0.0000
 21
2.0000
 31
0.0
  0
LINE
  8
COTAS
 10
137.2000
 20
-14.0000
 30
0.0
 11
137.2000
 21
2.0000
 31
0.0
  0
LINE
  8
COTAS
 10
-1.0000
 20
-13.0000
 30
0.0
 11
1.0000
 21
-11.0000
 31
0.0
  0
LINE
  8
COTAS
 10
136.2000
 20
-13.0000
 30
0.0
 11
138.2000
 21
-11.0000
 31
0.0
  0
TEXT
  8
COTAS
 10
53.6000
 20
-16.5000
 30
0.0
 40
2.5000
  1
LARGO TOTAL: 137.2 m
  0
LINE
  8
COTAS
 10
-12.0000
 20
0.0000
 30
0.0
 11
-12.0000
 21
45.7000
 31
0.0
  0
LINE
  8
COTAS
 10
-14.0000
 20
0.0000
 30
0.0
 11
2.0000
 21
0.0000
 31
0.0
  0
LINE
  8
COTAS
 10
-14.0000
 20
45.7000
 30
0.0
 11
2.0000
 21
45.7000
 31
0.0
  0
LINE
  8
COTAS
 10
-13.0000
 20
-1.0000
 30
0.0
 11
-11.0000
 21
1.0000
 31
0.0
  0
LINE
  8
COTAS
 10
-13.0000
 20
44.7000
 30
0.0
 11
-11.0000
 21
46.7000
 31
0.0
  0
TEXT
  8
COTAS
 10
-32.0000
 20
22.8500
 30
0.0
 40
2.5000
  1
ANCHO TOTAL: 45.7 m
  0
LINE
  8
COTAS
 10
22.8667
 20
45.7000
 30
0.0
 11
6.6738
 21
29.5071
 31
0.0
  0
LINE
  8
COTAS
 10
5.9738
 20
28.8071
 30
0.0
 11
7.3738
 21
30.2071
 31
0.0
  0
TEXT
  8
COTAS
 10
6.8667
 20
33.7000
 30
0.0
 40
2.0000
  1
RADIO DE COBERTURA: 22.9 m
  0
LINE
  8
TEXTOS
 10
147.2000
 20
45.7000
 30
0.0
 11
195.2000
 21
45.7000
 31
0.0
  0
LINE
  8
TEXTOS
 10
195.2000
 20
45.7000
 30
0.0
 11
195.2000
 21
13.7000
 31
0.0
  0
LINE
  8
TEXTOS
 10
195.2000
 20
13.7000
 30
0.0
 11
147.2000
 21
13.7000
 31
0.0
  0
LINE
  8
TEXTOS
 10
147.2000
 20
13.7000
 30
0.0
 11
147.2000
 21
45.7000
 31
0.0
  0
TEXT
  8
TEXTOS
 10
150.2000
 20
41.2000
 30
0.0
 40
2.3000
  1
LEYENDA
  0
LINE
  8
TEXTOS
 10
148.7000
 20
39.7000
 30
0.0
 11
193.7000
 21
39.7000
 31
0.0
  0
CIRCLE
  8
EXTINTORES
 10
153.2000
 20
34.7000
 30
0.0
 40
1.2000
  0
CIRCLE
  8
EXTINTORES
 10
153.2000
 20
34.7000
 30
0.0
 40
0.4000
  0
TEXT
  8
TEXTOS
 10
157.2000
 20
33.7000
 30
0.0
 40
2.0000
  1
EXTINTOR
  0
ARC
  8
COBERTURA
 10
153.2000
 20
27.7000
 30
0.0
 40
3.0000
 50
0.0
 51
180.0
  0
TEXT
  8
TEXTOS
 10
157.2000
 20
26.7000
 30
0.0
 40
2.0000
  1
ARCOS/CIRCULOS = RADIO DE COBERTURA
  0
TEXT
  8
TEXTOS
 10
150.2000
 20
19.7000
 30
0.0
 40
2.0000
  1
E-01 a E-06 = IDENTIFICACION DE EXTINTORES
  0
ENDSEC
  0
EOF